<svg width="455" height="345" viewBox="0 0 455 345" fill="none" xmlns="http://www.w3.org/2000/svg">
<path d="M122.148 100C136.566 121.568 144.974 147.495 144.974 175.386C144.974 200.494 138.158 224.013 126.28 244.19H105.089C119.007 224.819 127.202 201.059 127.202 175.386C127.202 146.724 116.986 120.449 100 100H122.148ZM170.122 100C174.709 124.188 177.137 149.431 177.137 175.386C177.137 198.995 175.128 222.017 171.312 244.19H158.023C161.934 222.129 164.006 199.113 164.006 175.386C164.006 149.289 161.501 124.051 156.798 100H170.122ZM203.032 100C205.13 124.188 206.242 149.431 206.242 175.386C206.242 198.995 205.323 222.017 203.578 244.19H195.061C196.821 222.052 197.752 199.03 197.752 175.386C197.752 149.389 196.628 124.146 194.511 100H203.032ZM228.95 244.19H225.001V100H228.95V244.19ZM259.44 100C257.323 124.146 256.198 149.389 256.198 175.386C256.198 199.03 257.13 222.052 258.891 244.19H250.373C248.628 222.017 247.708 198.995 247.708 175.386C247.708 149.431 248.821 124.188 250.919 100H259.44ZM294.249 100C289.546 124.051 287.041 149.289 287.041 175.386C287.041 199.113 289.112 222.129 293.022 244.19H279.735C275.919 222.017 273.909 198.995 273.909 175.386C273.909 149.431 276.337 124.188 280.925 100H294.249ZM354.321 100C337.335 120.449 327.118 146.724 327.118 175.386C327.118 201.059 335.314 224.819 349.232 244.19H328.04C316.162 224.013 309.348 200.494 309.348 175.386C309.348 147.495 317.755 121.568 332.173 100H354.321Z" fill="black"/>
</svg>
